<?xml version="1.0" encoding="UTF-8"?>
<svg width="131px" height="79px" viewBox="0 0 131 79" version="1.1" xmlns="http://www.w3.org/2000/svg" xmlns:xlink="http://www.w3.org/1999/xlink">
    <!-- Generator: sketchtool 60.1 (101010) - https://sketch.com -->
    <title>D35F2846-7641-48D5-804B-7A8495756DD2</title>
    <desc>Created with sketchtool.</desc>
    <defs>
        <polygon id="path-1" points="0 0.191390991 124.273415 0.191390991 124.273415 57.8672409 0 57.8672409"></polygon>
        <polygon id="path-3" points="0 79.8089138 130.557968 79.8089138 130.557968 1.01296198 0 1.01296198"></polygon>
    </defs>
    <g id="HOMEPAGE" stroke="none" stroke-width="1" fill="none" fill-rule="evenodd">
        <g id="Afnic_homepage_desktop_v1-VIDEO-+-FR-STICKY" transform="translate(-89.000000, -18.000000)">
            <g id="HEADER">
                <g id="LOGO-BLEU" transform="translate(89.000000, 17.000000)">
                    <g id="logo/afnic">
                        <g id="Group-3" transform="translate(0.000000, 0.821571)">
                            <mask id="mask-2" fill="white">
                                <use xlink:href="#path-1"></use>
                            </mask>
                            <g id="Clip-2"></g>
                            <path d="M10.4294015,32.702685 C7.48965437,33.8885075 6.66636317,31.582685 7.15142649,29.0297736 C7.57674298,26.7887612 10.5316799,21.0753432 18.812187,20.5295204 C20.5357315,20.4231913 22.1478835,20.6804065 22.9610481,20.9416723 C20.429402,24.5943306 15.9099087,30.1771154 10.4294015,32.702685 M115.153447,26.2328112 C112.491165,26.6307846 110.861799,27.1482543 107.831923,28.5690129 C101.714461,31.4358492 98.0060998,34.4019231 94.7615458,35.1391392 C91.8835709,35.8449618 89.2790138,35.9128093 89.3549607,31.5725584 C89.3883824,29.5391403 92.4861018,23.7983809 98.0739505,22.6510389 C99.68205,22.4748368 99.6182584,23.7548366 99.6182584,23.7548366 C99.6182584,23.7548366 99.8055961,26.0576216 101.734712,26.2368609 C104.816232,26.2874939 105.430911,23.971544 105.153449,22.2166082 C104.874964,19.4804049 100.707878,14.6014183 93.1797718,18.0950895 C93.1797718,18.0950895 85.7154725,21.8692661 82.9782583,27.8034439 C82.0162297,29.8874949 81.8977501,31.2140762 81.9281274,32.2236966 C80.9701506,33.0388878 80.4273669,33.4176218 79.6314171,33.8216714 C78.8547113,34.2166075 77.2071162,34.1761004 77.008638,33.0611645 C76.5012908,29.5897716 83.8906581,17.7588875 83.8066076,16.5730633 C83.7215497,15.3872408 79.1504102,16.3209126 78.643063,16.490026 C78.1357232,16.6591395 77.7124339,16.6591395 77.2881297,17.5047102 C75.9210411,20.4505323 73.582813,24.8890137 70.7696444,30.7948352 C70.7129417,30.9143281 70.63598,31.0206578 70.572181,31.1330655 C70.572181,31.1310372 70.5701514,31.1249627 70.569144,31.1198989 C69.0248361,34.0485082 67.0785052,34.4748344 66.5671136,34.5366074 C66.2440745,34.5193946 65.9747086,34.447494 65.7904079,34.3472422 C65.3407857,34.0961005 64.8597714,33.5847104 65.1139524,32.1457214 C65.3488892,30.8080018 69.8562299,21.9097731 70.1083813,19.0743304 C70.384836,15.961418 67.6891396,15.6454695 65.1139524,16.5345828 C61.6131915,17.743696 55.7336994,25.089519 53.4916733,27.0743288 C52.480027,27.9705325 52.7180009,27.155343 52.8040772,26.5619247 C52.8891425,25.9695188 54.0739526,22.3695195 54.5833183,19.3285077 C54.9073685,17.3933166 52.1650915,16.150785 49.5747119,18.0110381 C49.2030662,18.2773679 44.7868611,22.4282535 38.6400289,26.4211658 L39.9099006,22.8454697 L44.055725,11.4348365 C44.8972407,9.26065874 45.6455951,8.15584868 46.6724337,7.40951992 C47.6982539,6.665216 48.8962305,6.2925574 50.2663561,6.2925574 C51.0106586,6.2925574 51.5949638,6.42319035 52.0516711,6.61458303 C52.8607874,6.95382322 53.9899022,7.93913951 54.9438235,7.93913951 C56.7483827,7.93913951 58.2035698,6.55078562 58.2116734,4.83939324 C58.2157252,3.86015275 57.5342031,2.54673481 55.7448362,1.39939307 C54.4699017,0.581165232 52.8942054,0.191291809 51.0420544,0.191291809 C47.1757217,0.191291809 44.0688877,1.26876012 41.7235708,3.4226841 C39.3782538,5.57762093 37.4967366,8.7502794 36.0810414,12.9376207 L29.4643318,31.8054697 C28.205597,32.6206575 27.3731922,33.1553418 27.2243317,33.2434445 C22.1873683,36.2064829 23.3590138,32.9052142 24.9104068,29.8571154 C26.4628127,26.8100257 29.427875,21.8692661 28.8557233,19.8753427 C28.3858496,18.242937 25.8106605,16.5386342 21.5169886,15.724457 C20.1357243,15.462177 4.54483744,12.9345826 0.518508182,28.4181264 C-1.42579563,35.8955965 2.30078665,41.1067338 8.27749544,40.8626841 C10.8942042,40.7563544 15.8724315,39.0834434 20.4466099,31.2971152 C19.4653446,35.1917987 18.4628129,41.3872408 23.8754701,41.5391414 C24.4668623,41.5563542 25.2820525,41.3740776 26.2420534,40.9963543 L21.7164835,53.902685 C21.7164835,53.902685 21.5473696,54.3148373 21.4197735,54.9072415 C21.2638242,55.6262272 21.6516734,56.5082519 22.3392677,57.0520496 C23.0248378,57.5958474 23.7316725,57.8672409 24.4577494,57.8672409 C25.2617992,57.8672409 26.0435715,57.7376204 26.8010405,57.2535708 C27.5564836,56.7695178 28.1357241,56.3047093 28.5225585,55.4510392 L35.4278744,35.679898 C39.9372409,32.078888 43.4217984,29.2535695 43.9342047,28.8596458 C45.3914215,27.7366088 46.4071159,26.7249619 46.4405339,27.5664812 C46.4405339,29.8520516 44.0344586,35.8692667 44.0344586,39.4267341 C44.1134462,42.0859747 46.2167375,42.4434427 47.8430663,41.5421769 C50.1853426,40.2449609 59.0187601,27.5401532 60.5428128,26.1872404 C60.7119248,27.6242028 58.0020509,34.7361003 57.5797727,37.1907842 C57.1564834,39.6464822 57.8329389,41.0348366 59.4430642,41.7112904 C62.3038283,43.1057227 67.8390112,40.0009113 69.4207852,39.0166065 C69.6253448,39.6647092 69.8400301,40.0231914 69.8400301,40.0231914 C70.685594,41.12395 72.295723,42.1842016 75.4268641,42.0555952 C77.5524291,41.9664818 80.6167342,40.1224325 83.2354689,38.27433 C84.7807842,40.6530636 88.2673712,42.7371129 94.5023056,41.7355953 C99.4542019,40.766482 103.418759,37.3507842 108.782811,34.1862281 C114.783824,30.3421792 119.162559,29.4945836 124.273445,30.4657217 C123.366105,27.8277471 121.068379,25.3507849 115.153447,26.2328112" id="Fill-1" fill="#12284C" mask="url(#mask-2)"></path>
                        </g>
                        <path d="M86.2146003,12.8455719 C87.5138415,10.8739262 87.3821957,8.49417894 85.9209295,7.5311408 C84.4596629,6.56911534 82.2216875,7.38633065 80.9224465,9.35797652 C79.6232055,11.3306349 79.7548511,13.7093697 81.2161174,14.6724078 C82.6773839,15.6354454 84.9153596,14.8172179 86.2146003,12.8455719 Z" id="Fill-4" fill="#12284C"></path>
                        <mask id="mask-4" fill="white">
                            <use xlink:href="#path-3"></use>
                        </mask>
                        <g id="Clip-7"></g>
                        <polygon id="Fill-6" fill="#12284C" mask="url(#mask-4)" points="44.0061035 66.5694275 45.8248367 66.5694275 45.8248367 59.0524597 44.0061035 59.0524597"></polygon>
                        <path d="M47.2910156,60.6366582 L47.2910156,66.5698242 L49.1097504,66.5698242 L49.1097504,63.4224817 C49.1097504,62.9900765 49.2170921,62.6569119 49.433801,62.4229877 C49.6494974,62.1890636 49.9421557,62.0715953 50.3107633,62.0715953 C50.6581051,62.0715953 50.9365863,62.1840003 51.1462067,62.4067852 C51.3548144,62.6305827 51.4591181,62.9404562 51.4591181,63.3374183 L51.4591181,66.5698242 L53.2768402,66.5698242 L53.2768402,63.1247601 C53.2768402,62.3308358 53.0773465,61.7070382 52.6763338,61.2533672 C52.2763334,60.7996962 51.7355739,60.5728607 51.0550675,60.5728607 C50.6024091,60.5728607 50.2064595,60.6761519 49.8692443,60.8807089 C49.5330416,61.0862786 49.279877,61.366785 49.1097504,61.7212155 L49.1097504,60.6366582 L47.2910156,60.6366582 Z" id="Fill-8" fill="#12284C" mask="url(#mask-4)"></path>
                        <path d="M55.6118339,66.0539838 C55.9976566,66.398288 56.5384158,66.5694275 57.2330993,66.5694275 L58.0513268,66.5694275 L58.0513268,65.0068943 L57.4781623,65.0068943 C57.2503144,65.0068943 57.0893018,64.960312 56.9930993,64.8681603 C56.898922,64.7760081 56.8503144,64.6129701 56.8503144,64.3790457 L56.8503144,62.1673981 L58.0401875,62.1673981 L58.0401875,60.6362576 L56.8503144,60.6362576 L56.8503144,59.1800537 L55.0325935,59.1800537 L55.0325935,60.6362576 L54.2346191,60.6362576 L54.2346191,62.1673981 L55.0325935,62.1673981 L55.0325935,64.3476533 C55.0325935,65.1415781 55.2249986,65.7106926 55.6118339,66.0539838" id="Fill-9" fill="#12284C" mask="url(#mask-4)"></path>
                        <path d="M61.1349512,62.295097 C61.3557107,62.096616 61.6311537,61.9973755 61.9643182,61.9973755 C62.2843181,61.9973755 62.5506473,62.0956033 62.7673561,62.2900337 C62.9830523,62.4844641 63.0883687,62.7771224 63.0812801,63.1669958 L60.7633057,63.1669958 C60.7916601,62.784211 60.9152044,62.493578 61.1349512,62.295097 M64.3147114,65.5862365 C64.5759773,65.25611 64.7461037,64.8824392 64.825091,64.4642113 L62.9000279,64.4642113 C62.8433189,64.6768696 62.7268631,64.8510466 62.5486354,64.9857304 C62.3724329,65.1204138 62.1486355,65.1872492 61.8792683,65.1872492 C61.5612936,65.1872492 61.2980025,65.0900341 61.0924329,64.8945911 C60.8868632,64.7001605 60.7744581,64.3791478 60.7521796,63.9325657 L64.8676227,63.9325657 C64.9030659,63.7553503 64.9202809,63.5923125 64.9202809,63.4434518 C64.9202809,62.876363 64.7987619,62.3750972 64.5536986,61.9386416 C64.3096481,61.5031985 63.9633189,61.1649706 63.5177492,60.923958 C63.0701543,60.6829453 62.5526859,60.562439 61.9643317,60.562439 C61.3830657,60.562439 60.8655974,60.6849706 60.4119264,60.9290212 C59.9592682,61.1740846 59.6058505,61.5244643 59.3547112,61.9811731 C59.1025594,62.4388948 58.9769897,62.9796543 58.9769897,63.6034517 C58.9769897,64.2201605 59.1045847,64.7588948 59.3597746,65.2196543 C59.6149645,65.6804137 59.9673695,66.032819 60.4180024,66.2778823 C60.8676226,66.5219327 61.3830657,66.6444645 61.9643317,66.6444645 C62.4615468,66.6444645 62.9111669,66.5502873 63.3152176,66.3629454 C63.7192684,66.174591 64.0524327,65.9163633 64.3147114,65.5862365" id="Fill-10" fill="#12284C" mask="url(#mask-4)"></path>
                        <path d="M67.897311,61.753117 L67.897311,60.6361547 L66.0795898,60.6361547 L66.0795898,66.5693207 L67.897311,66.5693207 L67.897311,63.8685604 C67.897311,63.3794465 68.0309818,63.0331173 68.2962983,62.8275476 C68.5616146,62.6209653 68.9352855,62.5186867 69.4183233,62.5186867 L69.9398422,62.5186867 L69.9398422,60.5723572 C69.5216146,60.5723572 69.1327538,60.6786863 68.7742729,60.8913446 C68.4168046,61.1040029 68.125159,61.3915979 67.897311,61.753117" id="Fill-11" fill="#12284C" mask="url(#mask-4)"></path>
                        <path d="M74.6812882,60.5728607 C74.2286298,60.5728607 73.8326802,60.6761519 73.495465,60.8807089 C73.1592623,61.0862786 72.9060977,61.366785 72.7359711,61.7212155 L72.7359711,60.6366582 L70.9172363,60.6366582 L70.9172363,66.5698242 L72.7359711,66.5698242 L72.7359711,63.4224817 C72.7359711,62.9900765 72.8443256,62.6569119 73.0600217,62.4229877 C73.2757181,62.1890636 73.5683764,62.0715953 73.9379966,62.0715953 C74.2843258,62.0715953 74.562807,62.1840003 74.7724274,62.4067852 C74.9810351,62.6305827 75.0853388,62.9404562 75.0853388,63.3374183 L75.0853388,66.5698242 L76.9030609,66.5698242 L76.9030609,63.1247601 C76.9030609,62.3308358 76.7035672,61.7070382 76.3035671,61.2533672 C75.9025541,60.7996962 75.3617946,60.5728607 74.6812882,60.5728607" id="Fill-12" fill="#12284C" mask="url(#mask-4)"></path>
                        <path d="M80.1679103,62.295097 C80.3876571,62.096616 80.6641129,61.9973755 80.9972775,61.9973755 C81.3162648,61.9973755 81.5836066,62.0956033 81.7993029,62.2900337 C82.0160117,62.4844641 82.1213281,62.7771224 82.1142395,63.1669958 L79.7962646,63.1669958 C79.8236064,62.784211 79.9481634,62.493578 80.1679103,62.295097 M83.8580253,64.4642113 L81.9329619,64.4642113 C81.8762531,64.6768696 81.7587847,64.8510466 81.5815693,64.9857304 C81.405367,65.1204138 81.1815696,65.1872492 80.9122023,65.1872492 C80.593215,65.1872492 80.3309366,65.0900341 80.1253668,64.8945911 C79.9197973,64.7001605 79.8063795,64.3791478 79.7851138,63.9325657 L83.9005568,63.9325657 C83.936,63.7553503 83.9532151,63.5923125 83.9532151,63.4434518 C83.9532151,62.876363 83.8306833,62.3750972 83.5866327,61.9386416 C83.3415695,61.5031985 82.996253,61.1649706 82.5496706,60.923958 C82.1030886,60.6829453 81.5856201,60.562439 80.9972656,60.562439 C80.4159998,60.562439 79.8975187,60.6849706 79.4448605,60.9290212 C78.9911897,61.1740846 78.6377719,61.5244643 78.3866327,61.9811731 C78.1344808,62.4388948 78.0089111,62.9796543 78.0089111,63.6034517 C78.0089111,64.2201605 78.1365061,64.7588948 78.3916959,65.2196543 C78.6468858,65.6804137 79.0003035,66.032819 79.4499238,66.2778823 C79.8995441,66.5219327 80.4159998,66.6444645 80.9972656,66.6444645 C81.4934681,66.6444645 81.944101,66.5502873 82.3471392,66.3629454 C82.7522023,66.174591 83.0853671,65.9163633 83.3476455,65.5862365 C83.6089112,65.25611 83.779038,64.8824392 83.8580253,64.4642113" id="Fill-13" fill="#12284C" mask="url(#mask-4)"></path>
                        <path d="M85.4526383,59.1799469 L85.4526383,60.6361508 L84.6546631,60.6361508 L84.6546631,62.1672913 L85.4526383,62.1672913 L85.4526383,64.3475464 C85.4526383,65.1414713 85.6450435,65.7105858 86.0318792,66.053877 C86.4177023,66.3981812 86.958462,66.5693207 87.6531462,66.5693207 L88.4713745,66.5693207 L88.4713745,65.0067875 L87.8982095,65.0067875 C87.6703614,65.0067875 87.5093486,64.9602052 87.4141586,64.8680535 C87.3189686,64.7759013 87.270361,64.6128633 87.270361,64.3789389 L87.270361,62.1672913 L88.4612479,62.1672913 L88.4612479,60.6361508 L87.270361,60.6361508 L87.270361,59.1799469 L85.4526383,59.1799469 Z" id="Fill-14" fill="#12284C" mask="url(#mask-4)"></path>
                        <path d="M51.693777,73.7374268 C51.2613721,73.7374268 50.8664357,73.8467939 50.5079543,74.0665408 C50.1504863,74.2862876 49.8679547,74.5809713 49.6623846,74.949579 C49.48517,74.5597054 49.2239036,74.2599585 48.8765622,74.0513509 C48.5282078,73.8417306 48.1282079,73.7374268 47.6745369,73.7374268 C47.2421317,73.7374268 46.8644102,73.8326167 46.5413724,74.0240091 C46.2193471,74.2154016 45.979347,74.4776801 45.8244104,74.8118574 L45.8244104,73.8012242 L44.0056763,73.8012242 L44.0056763,79.7343903 L45.8244104,79.7343903 L45.8244104,76.5870478 C45.8244104,76.1759085 45.9307395,75.8599588 46.1433977,75.6402121 C46.356056,75.4214779 46.643651,75.3110981 47.0041573,75.3110981 C47.351499,75.3110981 47.6239039,75.4154018 47.8233975,75.6250222 C48.0218786,75.8336298 48.1211192,76.126288 48.1211192,76.5019844 L48.1211192,79.7343903 L49.939853,79.7343903 L49.939853,76.5870478 C49.939853,76.182997 50.0431442,75.8690728 50.2527646,75.646288 C50.4613722,75.4224905 50.7469419,75.3110981 51.1084608,75.3110981 C51.4568151,75.3110981 51.7302331,75.4154018 51.9327646,75.6250222 C52.135296,75.8336298 52.2355492,76.126288 52.2355492,76.5019844 L52.2355492,79.7343903 L54.0431442,79.7343903 L54.0431442,76.2893262 C54.0431442,75.4883133 53.8335238,74.8624904 53.4163086,74.41287 C52.9980812,73.9622369 52.4239038,73.7374268 51.693777,73.7374268" id="Fill-15" fill="#12284C" mask="url(#mask-4)"></path>
                        <path d="M59.2480456,77.8201577 C59.0039949,78.0824362 58.6890582,78.2140818 58.3062734,78.2140818 C57.9174126,78.2140818 57.6034886,78.0864869 57.3665265,77.8312969 C57.1285518,77.5761072 57.0100708,77.2216767 57.0100708,76.7669932 C57.0100708,76.314335 57.1285518,75.9599046 57.3665265,75.7047148 C57.6034886,75.4495249 57.9174126,75.3219299 58.3062734,75.3219299 C58.6890582,75.3219299 59.0039949,75.4515502 59.2480456,75.709778 C59.4920962,75.9680059 59.6146278,76.3214236 59.6146278,76.7669932 C59.6146278,77.2074995 59.4920962,77.5578793 59.2480456,77.8201577 L59.2480456,77.8201577 Z M59.6146567,74.8753442 C59.4587072,74.5209138 59.2176949,74.2404075 58.8916186,74.0348379 C58.5655428,73.8292682 58.1756694,73.7269897 57.7219986,73.7269897 C57.2328846,73.7269897 56.7954163,73.8495214 56.4085807,74.093572 C56.0217453,74.3386354 55.7179478,74.6890151 55.4941504,75.1457239 C55.2713656,75.6034456 55.1599731,76.1442051 55.1599731,76.7669898 C55.1599731,77.3847113 55.2713656,77.9234456 55.4941504,78.384205 C55.7179478,78.8449645 56.0217453,79.1973698 56.4085807,79.442433 C56.7954163,79.6864835 57.2328846,79.8090153 57.7219986,79.8090153 C58.1756694,79.8090153 58.5655428,79.705724 58.8916186,79.5001544 C59.2176949,79.2945848 59.4587072,79.0150911 59.6146567,78.6606608 L59.6146567,79.7340787 L61.4222517,79.7340787 L61.4222517,73.8009138 L59.6146567,73.8009138 L59.6146567,74.8753442 Z" id="Fill-16" fill="#12284C" mask="url(#mask-4)"></path>
                        <path d="M66.6700427,77.8201577 C66.425992,78.0824362 66.1110553,78.2140818 65.7282705,78.2140818 C65.3394097,78.2140818 65.0254856,78.0864869 64.7885236,77.8312969 C64.5505489,77.5761072 64.4320679,77.2216767 64.4320679,76.7669932 C64.4320679,76.314335 64.5505489,75.9599046 64.7885236,75.7047148 C65.0254856,75.4495249 65.3394097,75.3219299 65.7282705,75.3219299 C66.1110553,75.3219299 66.425992,75.4515502 66.6700427,75.709778 C66.9140932,75.9680059 67.0366249,76.3214236 67.0366249,76.7669932 C67.0366249,77.2074995 66.9140932,77.5578793 66.6700427,77.8201577 L66.6700427,77.8201577 Z M67.0265272,74.8753428 C66.8776663,74.5209126 66.639692,74.2404061 66.3136157,74.0348365 C65.9875399,73.8292669 65.5976664,73.7269885 65.1439956,73.7269885 C64.6548817,73.7269885 64.2174134,73.8495201 63.8305778,74.0935708 C63.4437424,74.338634 63.1399449,74.6890138 62.9161474,75.1457228 C62.6933626,75.6034442 62.5819702,76.1442039 62.5819702,76.7669884 C62.5819702,77.3847102 62.6933626,77.9234442 62.9161474,78.3842036 C63.1399449,78.8449634 63.4437424,79.1973684 63.8305778,79.4424317 C64.2174134,79.6864822 64.6548817,79.8090138 65.1439956,79.8090138 C65.5976664,79.8090138 65.9875399,79.7057226 66.3136157,79.5001532 C66.639692,79.2945833 66.8776663,79.0150898 67.0265272,78.6606594 L67.0265272,79.734077 L68.8442488,79.734077 L68.8442488,71.8657227 L67.0265272,71.8657227 L67.0265272,74.8753428 Z" id="Fill-17" fill="#12284C" mask="url(#mask-4)"></path>
                        <path d="M71.7896729,76.3318517 C71.8180273,75.9490669 71.9415716,75.658434 72.1613184,75.459953 C72.3820779,75.261472 72.6575209,75.1622314 72.991698,75.1622314 C73.3106853,75.1622314 73.578027,75.2594466 73.7937233,75.4548897 C74.0094195,75.64932 74.1147359,75.9419783 74.1076473,76.3318517 L71.7896729,76.3318517 Z M74.5441164,74.0878068 C74.0965215,73.8467942 73.5800658,73.7262878 72.9917113,73.7262878 C72.4094329,73.7262878 71.8929772,73.8488195 71.4382936,74.0938828 C70.9856354,74.3379334 70.6322177,74.6883131 70.3810784,75.1460346 C70.1289266,75.6037561 70.0033569,76.143503 70.0033569,76.7673004 C70.0033569,77.3850221 70.1309519,77.9227435 70.3861417,78.3835031 C70.6413316,78.8442624 70.9937367,79.1976803 71.4443696,79.4417307 C71.8950026,79.6867941 72.4094329,79.8093257 72.9917113,79.8093257 C73.487914,79.8093257 73.9375341,79.7151484 74.3425976,79.5267942 C74.7456356,79.3394523 75.0787999,79.0802117 75.3410786,78.7510978 C75.6033569,78.4209711 75.7734837,78.0473004 75.8514582,77.6290725 L73.9263951,77.6290725 C73.8706989,77.8417307 73.7532303,78.0159081 73.576015,78.1495787 C73.3988001,78.2842624 73.1750027,78.3521104 72.9066481,78.3521104 C72.5876608,78.3521104 72.3243697,78.2548955 72.1188,78.0594522 C71.9132304,77.8650219 71.8008253,77.5440094 71.7785468,77.0974269 L75.8939899,77.0974269 C75.9294331,76.9202118 75.9466481,76.7571738 75.9466481,76.6083132 C75.9466481,76.0412245 75.8251291,75.5399586 75.5800658,75.103503 C75.3360153,74.6670473 74.9896861,74.3288195 74.5441164,74.0878068 L74.5441164,74.0878068 Z" id="Fill-18" fill="#12284C" mask="url(#mask-4)"></path>
                        <polygon id="Fill-19" fill="#12284C" mask="url(#mask-4)" points="79.4450684 79.7339783 81.2638016 79.7339783 81.2638016 73.8008118 79.4450684 73.8008118"></polygon>
                        <path d="M80.359702,71.1745911 C80.0336265,71.1745911 79.7713484,71.2647177 79.5728676,71.4459837 C79.3733742,71.626237 79.2751465,71.8550979 79.2751465,72.1315538 C79.2751465,72.4009211 79.3733742,72.6267441 79.5728676,72.8069973 C79.7713484,72.9882634 80.0336265,73.0773773 80.359702,73.0773773 C80.6847649,73.0773773 80.9480557,72.9882634 81.1455238,72.8069973 C81.3450173,72.6267441 81.4432449,72.4009211 81.4432449,72.1315538 C81.4432449,71.8550979 81.3450173,71.626237 81.1455238,71.4459837 C80.9480557,71.2647177 80.6847649,71.1745911 80.359702,71.1745911" id="Fill-20" fill="#12284C" mask="url(#mask-4)"></path>
                        <path d="M86.4950089,73.7374268 C86.0413376,73.7374268 85.6453883,73.8407179 85.3091857,74.0452749 C84.9719703,74.2508446 84.7188057,74.531351 84.5486791,74.8857815 L84.5486791,73.8012242 L82.730957,73.8012242 L82.730957,79.7343903 L84.5486791,79.7343903 L84.5486791,76.5870478 C84.5486791,76.1546425 84.6570335,75.8214779 84.8727299,75.5875538 C85.0894388,75.3536296 85.3810844,75.2361613 85.7507048,75.2361613 C86.097034,75.2361613 86.3765277,75.3485664 86.5851355,75.5713512 C86.7947558,75.7951487 86.898047,76.1050223 86.898047,76.5019844 L86.898047,79.7343903 L88.7167816,79.7343903 L88.7167816,76.2893262 C88.7167816,75.4954018 88.5162753,74.8716043 88.1172878,74.4179332 C87.7152623,73.9642623 87.1755153,73.7374268 86.4950089,73.7374268" id="Fill-21" fill="#12284C" mask="url(#mask-4)"></path>
                        <polygon id="Fill-22" fill="#12284C" mask="url(#mask-4)" points="92.4700928 79.7342758 94.2888257 79.7342758 94.2888257 76.6932639 96.6695835 76.6932639 96.6695835 75.3109857 94.2888257 75.3109857 94.2888257 73.6623786 97.3723679 73.6623786 97.3723679 72.2173157 92.4700928 72.2173157"></polygon>
                        <path d="M100.338936,74.9176678 L100.338936,73.8007054 L98.5202026,73.8007054 L98.5202026,79.7338715 L100.338936,79.7338715 L100.338936,77.0331111 C100.338936,76.5439973 100.471595,76.1976681 100.737924,75.9920984 C101.00324,75.7855161 101.376911,75.6832375 101.858936,75.6832375 L102.380455,75.6832375 L102.380455,73.736908 C101.962227,73.736908 101.574379,73.8432371 101.215898,74.0558954 C100.85843,74.2685537 100.565772,74.5561487 100.338936,74.9176678" id="Fill-23" fill="#12284C" mask="url(#mask-4)"></path>
                        <path d="M107.137816,77.8201577 C106.893765,78.0824362 106.579841,78.2140818 106.197057,78.2140818 C105.808196,78.2140818 105.493259,78.0864869 105.256297,77.8312969 C105.018322,77.5761072 104.899841,77.2216767 104.899841,76.7669932 C104.899841,76.314335 105.018322,75.9599046 105.256297,75.7047148 C105.493259,75.4495249 105.808196,75.3219299 106.197057,75.3219299 C106.579841,75.3219299 106.893765,75.4515502 107.137816,75.709778 C107.382879,75.9680059 107.504398,76.3214236 107.504398,76.7669932 C107.504398,77.2074995 107.382879,77.5578793 107.137816,77.8201577 L107.137816,77.8201577 Z M107.504427,74.8753442 C107.34949,74.5209138 107.108478,74.2404075 106.781389,74.0348379 C106.455313,73.8292682 106.06544,73.7269897 105.612782,73.7269897 C105.123668,73.7269897 104.685187,73.8495214 104.299364,74.093572 C103.912528,74.3386354 103.608731,74.6890151 103.384934,75.1457239 C103.161136,75.6034456 103.049744,76.1442051 103.049744,76.7669898 C103.049744,77.3847113 103.161136,77.9234456 103.384934,78.384205 C103.608731,78.8449645 103.912528,79.1973698 104.299364,79.442433 C104.685187,79.6864835 105.123668,79.8090153 105.612782,79.8090153 C106.06544,79.8090153 106.455313,79.705724 106.781389,79.5001544 C107.108478,79.2945848 107.34949,79.0150911 107.504427,78.6606608 L107.504427,79.7340787 L109.312022,79.7340787 L109.312022,73.8009138 L107.504427,73.8009138 L107.504427,74.8753442 Z" id="Fill-24" fill="#12284C" mask="url(#mask-4)"></path>
                        <path d="M114.543776,73.7374268 C114.091118,73.7374268 113.695168,73.8407179 113.357953,74.0452749 C113.02175,74.2508446 112.768586,74.531351 112.598459,74.8857815 L112.598459,73.8012242 L110.779724,73.8012242 L110.779724,79.7343903 L112.598459,79.7343903 L112.598459,76.5870478 C112.598459,76.1546425 112.706813,75.8214779 112.92251,75.5875538 C113.138206,75.3536296 113.430864,75.2361613 113.800484,75.2361613 C114.146814,75.2361613 114.425295,75.3485664 114.634915,75.5713512 C114.843523,75.7951487 114.947827,76.1050223 114.947827,76.5019844 L114.947827,79.7343903 L116.765549,79.7343903 L116.765549,76.2893262 C116.765549,75.4954018 116.566055,74.8716043 116.166055,74.4179332 C115.765042,73.9642623 115.224282,73.7374268 114.543776,73.7374268" id="Fill-25" fill="#12284C" mask="url(#mask-4)"></path>
                        <path d="M120.817649,75.289521 C121.087016,75.289521 121.309801,75.360407 121.487016,75.5021792 C121.664231,75.6439512 121.780687,75.8424322 121.838408,76.097622 L123.762459,76.097622 C123.627775,75.360407 123.301699,74.7811667 122.784231,74.3599009 C122.266763,73.9376226 121.62575,73.7269897 120.86018,73.7269897 C120.278915,73.7269897 119.760434,73.8495214 119.307775,74.0935719 C118.854105,74.3386352 118.500687,74.6890148 118.249548,75.1457235 C117.997396,75.603445 117.871826,76.1442043 117.871826,76.7669889 C117.871826,77.3847102 117.999421,77.9234443 118.254611,78.3842036 C118.509801,78.8449629 118.862206,79.197368 119.312839,79.4424312 C119.762459,79.6864816 120.278915,79.8090134 120.86018,79.8090134 C121.62575,79.8090134 122.266763,79.5973677 122.784231,79.1761021 C123.301699,78.7538239 123.627775,78.1745833 123.762459,77.4373686 L121.838408,77.4373686 C121.780687,77.6925584 121.664231,77.8910393 121.487016,78.0328113 C121.309801,78.1745833 121.087016,78.2454695 120.817649,78.2454695 C120.498661,78.2454695 120.236383,78.1198998 120.030813,77.8677479 C119.825244,77.6166089 119.721953,77.2500268 119.721953,76.7669889 C119.721953,76.2859763 119.825244,75.9193942 120.030813,75.6672423 C120.236383,75.4161031 120.498661,75.289521 120.817649,75.289521" id="Fill-26" fill="#12284C" mask="url(#mask-4)"></path>
                        <path d="M126.400146,76.3318517 C126.427488,75.9490669 126.552045,75.658434 126.771792,75.459953 C126.991539,75.261472 127.267995,75.1622314 127.602172,75.1622314 C127.920147,75.1622314 128.188501,75.2594466 128.404197,75.4548897 C128.619894,75.64932 128.72521,75.9419783 128.718121,76.3318517 L126.400146,76.3318517 Z M130.557097,76.6083132 C130.557097,76.0412245 130.434565,75.5399586 130.190515,75.103503 C129.945451,74.6670473 129.600135,74.3288195 129.153552,74.0878068 C128.70697,73.8467942 128.190515,73.7262878 127.60216,73.7262878 C127.019882,73.7262878 126.502413,73.8488195 126.048742,74.0938828 C125.595072,74.3379334 125.241654,74.6883131 124.990514,75.1460346 C124.738363,75.6037561 124.612793,76.143503 124.612793,76.7673004 C124.612793,77.3850221 124.740388,77.9227435 124.995578,78.3835031 C125.250768,78.8442624 125.604185,79.1976803 126.053806,79.4417307 C126.504439,79.6867941 127.019882,79.8093257 127.60216,79.8093257 C128.09735,79.8093257 128.547983,79.7151484 128.952034,79.5267942 C129.356084,79.3394523 129.689249,79.0802117 129.951527,78.7510978 C130.213806,78.4209711 130.383932,78.0473004 130.461907,77.6290725 L128.536844,77.6290725 C128.480135,77.8417307 128.362667,78.0159081 128.186464,78.1495787 C128.009249,78.2842624 127.785451,78.3521104 127.517097,78.3521104 C127.197097,78.3521104 126.934818,78.2548955 126.729249,78.0594522 C126.523679,77.8650219 126.410261,77.5440094 126.388996,77.0974269 L130.504439,77.0974269 C130.539882,76.9202118 130.557097,76.7571738 130.557097,76.6083132 L130.557097,76.6083132 Z" id="Fill-27" fill="#12284C" mask="url(#mask-4)"></path>
                    </g>
                </g>
            </g>
        </g>
    </g>
</svg>