<?xml version="1.0" standalone="no"?>
<!DOCTYPE svg PUBLIC "-//W3C//DTD SVG 20010904//EN"
 "http://www.w3.org/TR/2001/REC-SVG-20010904/DTD/svg10.dtd">
<svg version="1.0" xmlns="http://www.w3.org/2000/svg"
 width="400.000000pt" height="400.000000pt" viewBox="0 0 400.000000 400.000000"
 preserveAspectRatio="xMidYMid meet">
<metadata>
Created by potrace 1.11, written by Peter Selinger 2001-2013
</metadata>
<g transform="translate(0.000000,400.000000) scale(0.100000,-0.100000)"
fill="#000000" stroke="none">
<path d="M1277 3242 l-67 -3 2 -1047 3 -1047 167 -1 c92 0 171 -4 175 -7 3 -4
7 -40 8 -80 5 -179 68 -281 200 -328 51 -18 79 -19 318 -17 l262 3 58 29 c121
61 158 138 160 331 l2 114 63 41 c122 78 213 182 282 320 l32 64 0 581 -1 580
-42 80 c-95 181 -164 249 -342 337 l-82 40 -555 4 c-305 3 -559 5 -565 7 -5 1
-40 1 -78 -1z m1068 -207 c100 -6 129 -12 174 -37 96 -53 146 -106 200 -208
l39 -75 -3 -495 c-1 -272 -6 -513 -10 -535 -17 -89 -139 -265 -165 -239 -8 9
-13 153 -15 521 -4 561 -9 668 -31 722 -19 45 -57 86 -109 116 -68 39 -117 45
-360 46 -167 0 -214 -2 -284 -16 -106 -20 -190 -126 -209 -261 -11 -80 -6
-296 8 -375 15 -85 40 -125 110 -180 l59 -47 208 -2 c194 -2 388 -6 406 -9 4
0 7 -39 7 -86 l0 -85 -102 -1 c-203 -1 -432 -8 -472 -15 -139 -23 -217 -137
-233 -341 -3 -43 -10 -81 -15 -84 -19 -12 -126 -10 -134 3 -4 6 -9 391 -10
855 l-2 842 431 -4 c238 -3 468 -7 512 -10z m-19 -401 c15 -11 31 -33 35 -48
4 -15 8 -117 9 -227 l1 -200 -249 1 c-140 1 -267 6 -291 12 -65 16 -73 42 -74
217 0 80 3 163 7 183 10 52 42 74 112 77 32 1 60 3 61 5 1 1 83 2 182 2 165
-1 182 -3 207 -22z m44 -1144 c0 -120 -7 -136 -60 -144 -43 -7 -485 -8 -519
-1 -33 6 -33 6 -32 74 0 155 8 162 188 168 76 3 141 5 146 6 4 1 68 2 142 3
l135 1 0 -107z m-4 -434 c3 -146 -17 -155 -330 -152 -205 2 -247 11 -266 56
-15 37 -17 169 -3 178 6 4 143 7 305 6 l293 -1 1 -87z"/>
</g>
</svg>
